<svg xmlns="http://www.w3.org/2000/svg" xmlns:xlink="http://www.w3.org/1999/xlink" version="1.1" width="128"
     height="128" viewBox="0 0 100 100">
    <defs>
        <g id="background">
            <path fill="url(#background-gradient)" stroke="none"
                  d=" M 97.45 2.65 Q 94.8 0 91.15 0 L 8.85 0 Q 5.2 0 2.65 2.65 0 5.2 0 8.85 L 0 91.15 Q 0 94.8 2.65 97.45 5.2 100 8.85 100 L 91.15 100 Q 94.8 100 97.45 97.45 100 94.8 100 91.15 L 100 8.85 Q 100 5.2 97.45 2.65 Z"/>
        </g>
        <g id="middle-1">
            <path fill="#000000" fill-opacity="0.10196078431372549" stroke="none"
                  d=" M 97.45 2.65 Q 94.85 0 91.15 0 L 8.85 0 Q 4.95 0 2.65 2.55 L 97.15 97.6 Q 100 95.05 100 91.15 L 100 8.85 Q 100 5.2 97.45 2.65 Z"/>
        </g>
        <mask id="mask">
            <path fill="#FFFFFF" stroke="none"
                  d=" M 97.45 2.65 Q 94.8 0 91.15 0 L 8.85 0 Q 5.2 0 2.65 2.65 0 5.2 0 8.85 L 0 91.15 Q 0 94.8 2.65 97.45 5.2 100 8.85 100 L 91.15 100 Q 94.8 100 97.45 97.45 100 94.8 100 91.15 L 100 8.85 Q 100 5.2 97.45 2.65 Z"/>
        </mask>
        <linearGradient id="background-gradient" x1="0" y1="0" y2="1" x2="0">
            <stop stop-color="#7791bb" offset="0%"/>
            <stop stop-color="#77a4bb" offset="100%"/>
        </linearGradient>
        <g transform="scale(0.3740247311982603) translate(11.877004623413086 -28.65999984741211)" id="picture">
            <path d="M219.579 287.725l20.956-20.33c1.048-1.016 1.048-2.54 0-3.557l-17.289-16.772c-1.048-.762-1.833-1.524-1.833-1.524l-1.834-1.78-61.036-59.462c-1.048-1.016-2.882-2.033-4.191-2.795l-35.103-14.739c-1.31-.508-1.833 0-1.571 1.27l13.098 35.577c.523 1.27 1.571 3.05 2.62 4.066l61.82 59.716 1.835 1.78 1.833 1.778 17.29 16.772c.785 1.016 2.357 1.016 3.405 0zm-83.826-82.333c-.524-.509-1.572-2.033-1.834-3.304l-6.81-18.296c-.525-1.27 0-3.05 1.047-4.066l2.62-2.541c1.047-1.017 2.881-1.27 4.19-.762l17.814 7.623c1.31.508 2.881 1.525 3.667 2.287s.262 1.27-1.048 1.27l-8.12-.508c-1.31 0-2.358 1.017-1.834 2.287l1.048 4.066c.262 1.27-.524 2.287-1.834 2.033l-4.715-.762c-1.31-.254-2.358.762-2.358 2.033v7.369c-.785 1.27-1.047 2.033-1.833 1.27zm80.42 73.439l-4.19-4.066c-1.049-1.017-1.049-2.541 0-3.558l11.787-11.435c1.048-1.016 2.62-1.016 3.668 0l4.19 4.066c1.049 1.016 1.049 2.541 0 3.557l-11.787 11.436c-1.31 1.016-2.882 1.016-3.668 0zm-175.404 8.916c9.468-8.275 11.08-23.232 3.61-33.475-3.162-4.334-7.492-7-11.976-8.243l-1.64-39.854c3.987-.258 7.839-2.334 11.116-5.199 8.012-7.001 10.257-18.64 6.043-28.504l31.318-27.37c7.568 6.288 18.72 6.863 26.732-.139 9.468-8.274 11.081-23.231 3.61-33.475-2.3-3.151-5.039-5.273-8.507-6.758l2.765-25.64c3.986-.258 8.125-1.94 11.767-5.123 9.468-8.274 11.081-23.231 3.61-33.475S98.063 28.66 88.595 36.933s-11.08 23.232-3.61 33.475c2.3 3.152 5.327 5.667 8.507 6.758l-2.688 24.928c-4.35.577-8.49 2.259-12.131 5.442-8.012 7.001-10.256 18.64-6.042 28.504l-31.318 27.37c-7.568-6.288-18.721-6.863-26.733.139-9.468 8.274-11.08 23.231-3.61 33.474 2.3 3.152 5.327 5.668 8.795 7.152l1.409 41.991c-3.047.728-5.52 2.243-8.069 4.471-9.468 8.275-11.08 23.232-3.61 33.475 8.123 10.32 21.805 11.91 31.274 3.635zm54.359-241.04c5.098-4.455 12.265-3.623 16.288 1.893s3.178 13.35-1.92 17.806-12.265 3.623-16.288-1.893c-3.66-5.834-2.814-13.669 1.92-17.806zm-9.558 70.284c5.098-4.456 12.265-3.623 16.288 1.893s3.178 13.35-1.92 17.806-12.266 3.622-16.289-1.893-3.178-13.35 1.92-17.806zm-64.093 56.013c5.098-4.456 12.265-3.623 16.288 1.893s3.178 13.35-1.92 17.806-12.265 3.622-16.288-1.893-3.178-13.35 1.92-17.806zm-1.398 86.376c5.098-4.455 12.265-3.622 16.288 1.893s3.178 13.35-1.92 17.806-12.265 3.623-16.288-1.893-3.178-13.35 1.92-17.806z"/>
        </g>

        <linearGradient id="picture-gradient" x1="0" y1="0" y2="1" x2="0">
            <stop stop-color="#ffffff" offset="0%"/>
            <stop stop-color="#e5eff9" offset="100%"/>
        </linearGradient>
    </defs>
    <use xlink:href="#background" fill="url(#background-gradient)"/>
    <use xlink:href="#middle-1"/>
    <g mask="url(#mask)">
        <g transform=" translate(50 50)translate(5 0)  scale(0.95) translate(-50 -50)">
            <use xlink:href="#picture" fill="url(#picture-gradient)"/>
        </g>
    </g>
</svg>
