<svg xmlns="http://www.w3.org/2000/svg" xmlns:xlink="http://www.w3.org/1999/xlink" version="1.1" width="128"
     height="128" viewBox="0 0 100 100">
    <defs>
        <g id="background">
            <path fill="url(#background-gradient)" stroke="none"
                  d=" M 97.45 2.65 Q 94.8 0 91.15 0 L 8.85 0 Q 5.2 0 2.65 2.65 0 5.2 0 8.85 L 0 91.15 Q 0 94.8 2.65 97.45 5.2 100 8.85 100 L 91.15 100 Q 94.8 100 97.45 97.45 100 94.8 100 91.15 L 100 8.85 Q 100 5.2 97.45 2.65 Z"/>
        </g>
        <g id="middle-1">
            <path fill="#000000" fill-opacity="0.10196078431372549" stroke="none"
                  d=" M 97.45 2.65 Q 94.85 0 91.15 0 L 8.85 0 Q 4.95 0 2.65 2.55 L 97.15 97.6 Q 100 95.05 100 91.15 L 100 8.85 Q 100 5.2 97.45 2.65 Z"/>
        </g>
        <mask id="mask">
            <path fill="#FFFFFF" stroke="none"
                  d=" M 97.45 2.65 Q 94.8 0 91.15 0 L 8.85 0 Q 5.2 0 2.65 2.65 0 5.2 0 8.85 L 0 91.15 Q 0 94.8 2.65 97.45 5.2 100 8.85 100 L 91.15 100 Q 94.8 100 97.45 97.45 100 94.8 100 91.15 L 100 8.85 Q 100 5.2 97.45 2.65 Z"/>
        </mask>
        <linearGradient id="background-gradient" x1="0" y1="0" y2="1" x2="0">
            <stop stop-color="#7791bb" offset="0%"/>
            <stop stop-color="#77a4bb" offset="100%"/>
        </linearGradient>
        <g transform="scale(3.3333333333333335) translate(-0.05 0)" id="picture">
            <path d="M13.5 5c.3 0 .5-.2.5-.5v-4c0-.3-.2-.5-.5-.5s-.5.2-.5.5v4c0 .3.2.5.5.5zM9 9.5c0-.3-.2-.5-.5-.5h-4c-.3 0-.5.2-.5.5s.2.5.5.5h4c.3 0 .5-.2.5-.5zm9 0c0 .3.2.5.5.5h4c.3 0 .5-.2.5-.5s-.2-.5-.5-.5h-4c-.3 0-.5.2-.5.5zm7.9 11.6l-12-12c-.2-.1-.4-.1-.6-.1s-.3.3-.3.5v17c0 .2.1.4.3.5.2.1.4.1.5-.1l3-2.6 3.2 5.5c.1.2.3.2.4.2.1 0 .2 0 .2-.1l3.5-2c.1-.1.2-.2.2-.3 0-.1 0-.3-.1-.4L21.4 22h4.1c.2 0 .4-.1.5-.3s0-.4-.1-.6zM7.5 2.8c-.2-.2-.5-.2-.7 0s-.2.5 0 .7l2.8 2.8c.1.1.2.2.4.2s.3 0 .4-.1c.2-.2.2-.5 0-.7L7.5 2.8zM17 6.5c.1 0 .3 0 .4-.1l2.8-2.8c.2-.2.2-.5 0-.7s-.5-.2-.7 0l-2.8 2.8c-.2.2-.2.5 0 .7.1 0 .2.1.3.1zm-7.4 6.2l-2.8 2.8c-.2.2-.2.5 0 .7.1.1.2.1.4.1s.3 0 .4-.1l2.8-2.8c.2-.2.2-.5 0-.7s-.6-.2-.8 0z"/>
        </g>

        <linearGradient id="picture-gradient" x1="0" y1="0" y2="1" x2="0">
            <stop stop-color="#ffffff" offset="0%"/>
            <stop stop-color="#e5eff9" offset="100%"/>
        </linearGradient>
    </defs>
    <use xlink:href="#background" fill="url(#background-gradient)"/>
    <use xlink:href="#middle-1"/>
    <g mask="url(#mask)">
        <g transform="translate(50 50) translate(-5 0) scale(0.525)translate(-50 -50)">
            <use xlink:href="#picture" fill="url(#picture-gradient)"/>
        </g>
    </g>
</svg>
