<?xml version="1.0" encoding="UTF-8" standalone="no"?>
<svg
        xmlns:dc="http://purl.org/dc/elements/1.1/"
        xmlns:cc="http://creativecommons.org/ns#"
        xmlns:rdf="http://www.w3.org/1999/02/22-rdf-syntax-ns#"
        xmlns="http://www.w3.org/2000/svg"
        width="16"
        height="16"
        viewBox="0 0 16 16"
        id="svg2"
        version="1.1">
  <defs
     id="defs4" />
  <metadata
     id="metadata7">
    <rdf:RDF>
      <cc:Work
         rdf:about="">
        <dc:format>image/svg+xml</dc:format>
        <dc:type
           rdf:resource="http://purl.org/dc/dcmitype/StillImage" />
        <dc:title></dc:title>
      </cc:Work>
    </rdf:RDF>
  </metadata>
  <path
     id="path3335"
     d="m 9.6240636,13.454428 c -1.6586381,0 -3.3172763,0 -4.9759144,0 0.018957,-1.648281 -0.015854,-3.295777 -0.04756,-4.9435898 l -4.25257737,0 0,-1.1757544 L 4.626206,7.3043582 C 4.645471,5.7399275 4.6103268,4.0824779 4.6017428,2.5180791 6.2857859,2.5285001 7.2769867,2.5079011 9.6240634,2.5079011 9.6227034,1.6795799 9.5995803,0.81247923 9.6008603,0.11816156 11.807371,0.11691657 13.781894,0.09495844 15.872482,0.09495844 l 0.0232,1.14139616 c -1.677391,-0.00207 -3.320058,0.012688 -5.060301,0.020931 0.009,1.3141624 0,2.31361 0,3.7224044 l 5.037089,0 0,1.118193 -6.2484096,0 0,-2.4129427 -3.8277153,0 c 0.00379,2.8972016 0.046835,6.0456623 0.046406,8.5924297 1.2604364,0 2.5208727,0 3.7813091,0 -0.00136,-0.828321 -0.00128,-1.718625 0,-2.4129423 2.0828018,0 4.1656028,0 6.2484048,0 l 0,1.1181943 c -1.679028,0 -3.358056,0 -5.037084,0 0.0015,1.365379 -0.0063,2.457732 0,3.707691 1.679025,0 3.35805,0 5.037075,0 l 0,1.177045 c -2.082799,0 -4.165597,0 -6.2483958,0 -0.022962,-0.839285 -0.012517,-1.552324 3.4e-6,-2.41293 z"
     style="fill:#ffffff;fill-opacity:1" />
</svg>
