<svg xmlns="http://www.w3.org/2000/svg" xmlns:xlink="http://www.w3.org/1999/xlink" version="1.1" width="128"
     height="128" viewBox="0 0 100 100">
    <defs>
        <g id="background">
            <path fill="url(#background-gradient)" stroke="none"
                  d=" M 97.45 2.65 Q 94.8 0 91.15 0 L 8.85 0 Q 5.2 0 2.65 2.65 0 5.2 0 8.85 L 0 91.15 Q 0 94.8 2.65 97.45 5.2 100 8.85 100 L 91.15 100 Q 94.8 100 97.45 97.45 100 94.8 100 91.15 L 100 8.85 Q 100 5.2 97.45 2.65 Z"/>
        </g>
        <g id="middle-1">
            <path fill="#000000" fill-opacity="0.10196078431372549" stroke="none"
                  d=" M 97.45 2.65 Q 94.85 0 91.15 0 L 8.85 0 Q 4.95 0 2.65 2.55 L 97.15 97.6 Q 100 95.05 100 91.15 L 100 8.85 Q 100 5.2 97.45 2.65 Z"/>
        </g>
        <mask id="mask">
            <path fill="#FFFFFF" stroke="none"
                  d=" M 97.45 2.65 Q 94.8 0 91.15 0 L 8.85 0 Q 5.2 0 2.65 2.65 0 5.2 0 8.85 L 0 91.15 Q 0 94.8 2.65 97.45 5.2 100 8.85 100 L 91.15 100 Q 94.8 100 97.45 97.45 100 94.8 100 91.15 L 100 8.85 Q 100 5.2 97.45 2.65 Z"/>
        </mask>
        <linearGradient id="background-gradient" x1="0" y1="0" y2="1" x2="0">
            <stop stop-color="#7791bb" offset="0%"/>
            <stop stop-color="#77a4bb" offset="100%"/>
        </linearGradient>
        <g transform="scale(0.7450290094761105) translate(-86.65750503540039 -65.61101531982422)" id="picture">
            <path d="M196.013 132.392l-9.302-16.279c-.997-1.661-2.99-2.326-4.983-1.661l-10.964 4.319c-2.325-1.661-4.319-2.99-6.977-3.987l-1.66-11.296c-.333-1.993-1.994-3.322-3.987-3.322h-19.27c-1.993 0-3.654 1.329-3.986 3.322l-1.661 11.296c-2.326.997-4.652 2.326-6.645 3.987l-11.296-4.32c-1.66-.664-3.986 0-4.983 1.662l-9.302 16.279c-.997 1.661-.665 3.987.996 5.316l9.303 6.976c0 1.33-.333 2.658-.333 3.655s0 2.325.333 3.654l-9.303 6.977c-1.66 1.329-1.993 3.322-.996 4.984l9.302 16.61c.997 1.662 2.99 2.326 4.983 1.662l10.964-4.319c2.325 1.661 4.319 2.99 6.977 3.987l1.66 11.295c.333 1.994 1.994 3.323 3.987 3.323h16.28c.996 0 1.66-.665 1.66-1.661 0-.665-.332-.997-.664-1.33-3.654-4.65-5.98-10.63-5.98-16.943 0-3.987.997-7.973 2.658-11.628.332-.664.332-1.329-.332-1.66s-.997-.665-1.661-.665c-10.964 2.99-20.598-5.316-20.598-15.947 0-9.303 7.309-16.612 16.61-16.612s16.612 7.31 16.612 16.612c0 1.329-.332 2.658-.664 3.986 0 .665 0 1.33.664 1.662.332.332 1.33.332 1.661.332 5.98-2.658 12.293-3.322 18.605-1.661.332 0 .997 0 1.329-.333.332-.332.664-.664.664-1.328v-.997c0-1.329 0-2.658-.332-3.655l9.302-6.976c1.994-1.33 2.326-3.655 1.33-5.316zm-19.269 20.93c-12.957 0-23.256 10.3-23.256 23.256s10.3 23.256 23.256 23.256S200 189.534 200 176.578s-10.299-23.256-23.256-23.256zm1.661 36.545c-.996 0-1.66-.664-1.66-1.661s.664-1.661 1.66-1.661 1.661.664 1.661 1.661-.664 1.661-1.66 1.661zm1.661-10.299v1.993c0 .997-.664 1.662-1.66 1.662s-1.662-.665-1.662-1.662v-3.322c0-.664.665-1.329 1.33-1.66 2.325-.665 5.315-1.662 5.315-4.984 0-2.326-2.99-4.984-6.645-4.984s-6.312 2.658-6.644 4.984c0 .996-.997 1.66-1.661 1.66-.997 0-1.662-.996-1.662-1.66.333-3.987 4.32-8.306 9.967-8.306 5.316 0 9.967 3.655 9.967 8.306 0 3.986-2.326 6.644-6.645 7.973z M173.657 111.389c-.51 0-1.022-.163-1.532-.326-1.873-.815-3.746-1.792-5.449-3.095-1.021-.652-1.702-1.792-1.702-2.933s.51-2.28 1.362-2.932c.851-.652 1.021-1.955.34-2.932a29.967 29.967 0 0 1-1.872-3.096c-.511-1.14-1.703-1.629-2.895-1.303-1.192.489-2.383.326-3.405-.326-1.021-.651-1.702-1.629-1.873-2.77-.17-.977-.17-2.117-.17-3.095s0-2.117.17-3.095c.17-1.14.852-2.118 1.873-2.77 1.022-.65 2.213-.65 3.405-.325s2.384-.163 2.895-1.14c.51-1.14 1.191-2.281 1.872-3.259.681-.977.511-2.28-.34-2.932-.851-.651-1.362-1.792-1.362-2.932s.68-2.28 1.532-2.933c1.703-1.303 3.576-2.28 5.448-3.095 1.192-.489 2.384-.326 3.576.163 1.021.489 1.702 1.466 2.043 2.607.17 1.14 1.362 1.955 2.554 1.792a14.415 14.415 0 0 1 3.745 0c1.192.163 2.384-.652 2.554-1.792.17-1.14.852-2.118 2.043-2.607 1.022-.489 2.384-.652 3.576-.163 1.873.815 3.745 1.792 5.448 3.095.851.652 1.532 1.792 1.532 2.933s-.51 2.28-1.362 2.932c-.851.652-1.021 1.955-.34 2.932a29.967 29.967 0 0 1 1.873 3.096c.51 1.14 1.702 1.629 2.894 1.14 1.192-.489 2.383-.326 3.405.326 1.022.652 1.703 1.629 1.873 2.77.17 1.14.17 2.28.17 3.257s0 2.118-.17 3.096c-.17 1.14-.851 2.118-1.873 2.77-1.022.65-2.213.65-3.405.325l.34-.815-.34.815c-1.022-.326-2.384.163-2.894 1.14-.511 1.14-1.192 2.118-1.873 3.096-.681.977-.511 2.28.34 2.932.851.814 1.533 1.792 1.362 2.932 0 1.14-.68 2.281-1.532 2.933-1.703 1.303-3.575 2.28-5.448 3.095-1.192.489-2.384.326-3.576-.163-1.021-.489-1.702-1.466-2.043-2.607-.17-1.14-1.362-1.954-2.554-1.792a14.415 14.415 0 0 1-3.745 0c-1.192-.162-2.384.652-2.554 1.792-.17 1.14-.851 2.118-2.043 2.607-.511.489-1.192.652-1.873.652zM162.761 92.98c1.532 0 3.064.815 3.745 2.28.51.978 1.022 1.956 1.703 2.933 1.192 1.63 1.021 3.91-.681 5.213-.511.489-.852.978-.852 1.63s.34 1.302.852 1.791c1.532 1.14 3.235 2.118 5.107 2.77.681.325 1.362.163 2.043-.163.682-.326 1.022-.815 1.192-1.466.34-1.955 2.214-3.259 4.427-3.096 1.192.163 2.213.163 3.405 0 2.213-.163 4.086 1.14 4.427 3.096.17.651.51 1.14 1.192 1.466.68.326 1.362.326 2.043.163 1.873-.815 3.575-1.63 5.107-2.77.511-.489.852-.977.852-1.792 0-.651-.34-1.303-.852-1.629-1.702-1.303-1.872-3.584-.68-5.213.68-.814 1.191-1.792 1.702-2.932.851-1.792 3.065-2.77 4.937-2.118.681.163 1.362.163 1.873-.163a1.782 1.782 0 0 0 1.022-1.63c.51-.814.51-1.791.51-2.769s0-1.954-.17-2.932c-.17-.651-.51-1.303-1.021-1.629-.511-.326-1.362-.326-1.873-.163-2.043.652-4.086-.163-5.108-2.118-.51-.977-1.021-1.955-1.702-2.932-1.192-1.63-1.022-3.91.68-5.213.511-.489.852-.977.852-1.63s-.34-1.302-.851-1.791c-1.533-1.14-3.235-2.118-5.108-2.77-1.022-.162-1.703 0-2.384.326-.68.326-1.021.815-1.191 1.466-.341 1.955-2.214 3.259-4.427 3.096a11.924 11.924 0 0 0-3.405 0c-2.214.163-4.086-1.14-4.427-3.096-.17-.651-.51-1.14-1.192-1.466-.34-.326-1.021-.488-1.702-.163-1.873.815-3.576 1.63-5.108 2.77-.681.489-1.022 1.14-1.022 1.792 0 .651.34 1.303.852 1.629 1.702 1.303 1.873 3.584.68 5.213-.68.814-1.191 1.792-1.702 2.932-1.021 1.792-3.235 2.77-5.108 2.118-.68-.326-1.362-.326-1.872.163a1.782 1.782 0 0 0-1.022 1.63c-.34.814-.34 1.791-.34 2.768s0 1.955.17 2.933c.17.651.51 1.303 1.021 1.629.511.326 1.362.326 1.873.163.681-.326 1.022-.326 1.533-.326zM182 98.356c-5.619 0-10.216-4.399-10.216-9.774s4.597-9.775 10.216-9.775 10.215 4.399 10.215 9.775-4.597 9.774-10.215 9.774zm0-17.92c-4.768 0-8.513 3.584-8.513 8.146s3.745 8.145 8.513 8.145 8.512-3.584 8.512-8.146-3.745-8.145-8.512-8.145z"/>
        </g>

        <linearGradient id="picture-gradient" x1="0" y1="0" y2="1" x2="0">
            <stop stop-color="#ffffff" offset="0%"/>
            <stop stop-color="#e5eff9" offset="100%"/>
        </linearGradient>
    </defs>
    <use xlink:href="#background" fill="url(#background-gradient)"/>
    <use xlink:href="#middle-1"/>ƒ
    <g mask="url(#mask)">
        <g transform="translate(50 50) translate(0 0) scale(0.625) translate( -50 -50)">
            <use xlink:href="#picture" fill="url(#picture-gradient)"/>
        </g>
    </g>


</svg>
